<?xml version="1.0" standalone="no"?>
<!DOCTYPE svg PUBLIC "-//W3C//DTD SVG 20010904//EN"
 "http://www.w3.org/TR/2001/REC-SVG-20010904/DTD/svg10.dtd">
<svg version="1.0" xmlns="http://www.w3.org/2000/svg"
 width="1200.000000pt" height="1200.000000pt" viewBox="0 0 1200.000000 1200.000000"
 preserveAspectRatio="xMidYMid meet">

<g transform="translate(0.000000,1200.000000) scale(0.100000,-0.100000)"
fill="#00a2ed" stroke="none">
<path d="M3397 9368 c-5 -51 -149 -1108 -242 -1783 -25 -181 -81 -595 -125
-920 -44 -324 -118 -867 -165 -1205 -46 -338 -81 -618 -77 -621 4 -4 106 -60
227 -127 121 -66 731 -399 1355 -741 l1135 -622 87 3 88 3 -203 146 c-111 80
-623 448 -1137 818 -514 370 -936 674 -937 675 -2 1 118 1836 197 3011 16 248
37 560 46 695 l16 245 -91 167 c-50 92 -106 199 -126 238 -19 38 -37 70 -39
70 -2 0 -6 -24 -9 -52z"/>
<path d="M8477 9181 l-127 -239 40 -608 c22 -335 44 -670 50 -744 40 -529 169
-2595 163 -2601 -4 -3 -208 -150 -453 -326 -802 -576 -1775 -1276 -1799 -1294
-24 -19 -23 -19 67 -19 l91 0 203 111 c230 127 374 205 1613 884 490 267 893
490 898 494 4 4 -31 288 -78 632 -47 343 -133 973 -190 1399 -58 426 -119 870
-135 985 -16 116 -70 512 -120 880 -50 369 -92 673 -93 677 -1 4 -59 -100
-130 -231z"/>
<path d="M2495 9069 c-3 -13 -32 -172 -65 -354 -127 -704 -394 -2178 -460
-2540 -289 -1580 -321 -1768 -308 -1776 7 -5 16 -9 20 -9 4 0 355 -138 780
-306 425 -168 1059 -418 1408 -556 349 -138 763 -302 920 -364 l285 -113 51
47 c29 26 52 50 53 53 1 3 -48 29 -109 58 -60 29 -284 138 -497 243 -214 105
-464 227 -558 273 -342 166 -1710 837 -1714 841 -4 3 57 475 205 1589 41 308
111 835 155 1170 44 336 100 760 124 942 l45 333 -161 242 c-89 134 -163 245
-165 247 -2 2 -6 -7 -9 -20z"/>
<path d="M9344 8845 l-162 -244 34 -253 c19 -139 72 -545 119 -903 47 -357
110 -832 140 -1055 30 -223 91 -682 135 -1020 44 -338 86 -657 94 -709 l13
-93 -421 -207 c-232 -113 -881 -431 -1443 -706 l-1021 -500 51 -52 52 -53 250
99 c329 131 1121 444 1355 536 102 40 370 146 595 235 751 297 1029 407 1128
445 53 21 97 44 97 50 0 6 -23 135 -50 286 -28 151 -91 497 -140 769 -49 272
-110 608 -135 745 -25 138 -89 486 -141 775 -52 289 -119 658 -149 820 -107
583 -225 1245 -225 1263 0 9 -3 17 -7 17 -5 0 -81 -110 -169 -245z"/>
<path d="M10285 8593 c-94 -130 -174 -242 -178 -249 -8 -14 5 -79 108 -564 25
-118 79 -375 120 -570 41 -195 97 -463 125 -595 28 -132 84 -400 125 -595 41
-195 96 -461 124 -590 28 -129 98 -462 156 -740 58 -278 113 -538 121 -578 9
-41 14 -75 12 -78 -2 -2 -47 -17 -99 -33 -52 -16 -231 -72 -399 -124 -168 -52
-444 -139 -615 -192 -291 -91 -475 -148 -1260 -394 -176 -55 -489 -152 -695
-217 -206 -64 -457 -142 -557 -173 -101 -32 -185 -60 -188 -63 -4 -4 40 -143
51 -156 1 -2 44 4 95 12 52 9 351 56 664 105 314 49 770 121 1015 160 245 39
848 134 1340 211 492 77 1034 163 1203 189 169 27 310 51 312 53 3 2 -16 80
-41 174 -25 93 -97 367 -159 609 -157 603 -305 1170 -420 1610 -135 520 -330
1266 -370 1420 -19 72 -72 276 -119 455 -46 179 -133 510 -191 735 -59 226
-108 411 -109 412 -1 1 -78 -104 -171 -234z"/>
<path d="M1472 8508 c-227 -870 -303 -1158 -403 -1543 -136 -521 -312 -1198
-469 -1800 -66 -253 -174 -667 -240 -920 -66 -253 -142 -544 -169 -647 l-49
-187 27 -5 c14 -4 298 -49 631 -101 333 -52 819 -128 1080 -169 261 -41 720
-114 1020 -161 300 -48 831 -131 1180 -186 349 -54 649 -102 666 -105 31 -6
31 -5 58 71 15 43 24 81 19 85 -4 4 -82 30 -173 58 -91 28 -208 64 -260 80
-52 17 -198 62 -325 102 -126 39 -372 116 -545 170 -173 54 -526 164 -785 245
-258 81 -612 191 -785 245 -173 54 -454 142 -625 195 -170 54 -311 98 -313
100 -1 1 11 67 28 146 17 79 72 338 121 574 49 237 112 534 139 662 27 127 77
364 110 525 34 161 90 430 126 598 36 168 98 465 139 660 41 195 95 452 120
570 25 118 62 294 82 390 l36 175 -174 242 c-96 133 -177 242 -180 243 -3 0
-43 -141 -87 -312z"/>
<path d="M5796 3064 c-208 -41 -417 -149 -589 -305 -37 -34 -67 -65 -65 -70 2
-5 30 -31 62 -58 l59 -50 61 55 c256 233 582 325 878 250 160 -41 299 -113
463 -241 l92 -72 56 62 56 62 -65 54 c-195 162 -417 274 -628 314 -95 18 -286
18 -380 -1z"/>
</g>
</svg>
